<svg width="29" height="40" viewBox="0 0 29 40" fill="none" xmlns="http://www.w3.org/2000/svg">
<path d="M14.2051 36.0459C14.1148 35.9206 14.022 35.7914 13.9268 35.6586C12.6315 33.8498 10.9086 31.3641 9.18963 28.6469C7.46557 25.9217 5.77276 23.0062 4.51894 20.3311C3.22376 17.5677 2.55341 15.3795 2.55341 13.9999C2.55341 12.4698 2.85479 10.9546 3.44034 9.54098C4.02589 8.12733 4.88414 6.84286 5.9661 5.7609C7.04806 4.67894 8.33253 3.82069 9.74618 3.23514C11.1598 2.64959 12.675 2.34821 14.2051 2.34821C15.7352 2.34821 17.2503 2.64959 18.664 3.23514C20.0776 3.82069 21.3621 4.67894 22.4441 5.7609C23.526 6.84286 24.3843 8.12733 24.9698 9.54098C25.5554 10.9546 25.8567 12.4698 25.8567 13.9999C25.8567 15.3795 25.1864 17.5677 23.8912 20.3311C22.6374 23.0062 20.9446 25.9217 19.2205 28.6469C17.5016 31.3641 15.7786 33.8498 14.4833 35.6586C14.3882 35.7914 14.2954 35.9206 14.2051 36.0459ZM14.2051 20.3482C15.8888 20.3482 17.5035 19.6794 18.694 18.4888C19.8846 17.2983 20.5534 15.6836 20.5534 13.9999C20.5534 12.3162 19.8846 10.7015 18.694 9.51093C17.5035 8.32039 15.8888 7.65155 14.2051 7.65155C12.5214 7.65155 10.9067 8.32039 9.71613 9.51093C8.52559 10.7015 7.85675 12.3162 7.85675 13.9999C7.85675 15.6836 8.52559 17.2983 9.71613 18.4888C10.9067 19.6794 12.5214 20.3482 14.2051 20.3482Z" stroke="white" stroke-width="4.69666"/>
</svg>
