<svg width="29" height="20" viewBox="0 0 41 40" fill="none" xmlns="http://www.w3.org/2000/svg">
<path d="M36.5919 36.3869L38.2525 38.0474L36.5919 36.3869C35.7821 37.1967 34.6837 37.6517 33.5384 37.6517H28.2051C14.038 37.6517 2.55341 26.1671 2.55341 12V6.66667C2.55341 5.52137 3.00837 4.42299 3.81822 3.61314C4.62806 2.8033 5.72645 2.34833 6.87175 2.34833H12.7903C13.1583 2.34885 13.5155 2.47223 13.8054 2.6989C14.0955 2.92574 14.3014 3.243 14.3906 3.6003L14.3909 3.60155L15.9535 9.85222L15.9537 9.85289C16.0547 10.2565 15.9997 10.6833 15.7997 11.0481C15.5997 11.4128 15.2696 11.6885 14.8752 11.8204C14.8751 11.8204 14.875 11.8204 14.8749 11.8205C14.8748 11.8205 14.8747 11.8205 14.8746 11.8206L11.9179 12.807L11.9158 12.8077C10.9368 13.1354 10.1109 13.8088 9.59284 14.7019C9.07483 15.5949 8.90031 16.6462 9.10199 17.6588L9.10247 17.6611C9.7668 20.9784 11.3979 24.0248 13.7904 26.4168C16.1829 28.8087 19.2297 30.4391 22.5471 31.1027L22.549 31.1031C23.5615 31.3048 24.6128 31.1303 25.5059 30.6122C26.3989 30.0942 27.0724 29.2683 27.4 28.2893L27.4007 28.2874L28.1953 25.906L28.1959 25.9042C28.2707 25.6796 28.3928 25.4738 28.5541 25.3005C28.7153 25.1272 28.912 24.9907 29.1306 24.9L28.2314 22.7307L29.1306 24.9C29.3493 24.8094 29.5848 24.7668 29.8214 24.7752C30.0579 24.7835 30.2899 24.8426 30.5017 24.9485L36.9412 28.1696L36.9428 28.1704C37.2174 28.3075 37.4484 28.5183 37.6098 28.7793L39.607 27.5441L37.6098 28.7793C37.7712 29.0403 37.8567 29.3411 37.8568 29.648C37.8568 29.648 37.8568 29.648 37.8568 29.6481V33.3333C37.8568 34.4786 37.4018 35.577 36.5919 36.3869Z" stroke="white" stroke-width="4.69666"/>
</svg>
